<svg xmlns="http://www.w3.org/2000/svg" xmlns:xlink="http://www.w3.org/1999/xlink" viewBox="0 0 938.406 878.052"><defs><style>.cls-1{fill:#49afd4;}.cls-2{fill:url(#名称未設定グラデーション_31);}.cls-3{fill:#f1b900;}</style><linearGradient id="名称未設定グラデーション_31" x1="-2610.2" y1="1046.261" x2="-2609.2" y2="1046.261" gradientTransform="matrix(0, -501.409, -501.409, 0, 524979.726, -1307877.346)" gradientUnits="userSpaceOnUse"><stop offset="0" stop-color="#e9822e"/><stop offset="0.269" stop-color="#e9822e"/><stop offset="1" stop-color="#f1b900"/></linearGradient></defs><g id="レイヤー_2" data-name="レイヤー 2"><g id="レイヤー_1-2" data-name="レイヤー 1"><path class="cls-1" d="M506.27,474.985a31.873,31.873,0,1,0-55.805,0c8.542,21.544,27.9,51.487,27.9,51.487S497.728,496.529,506.27,474.985Z"/><path class="cls-2" d="M0,877.344a212.925,212.925,0,0,0,26.19-15.65c8.365-5.777,16.461-11.909,24.21-18.437a331.787,331.787,0,0,0,42.531-43.01,351.661,351.661,0,0,0,34.061-49.487,365.7,365.7,0,0,0,25.1-54.215l10.643-28.691,9.32,30.174.441,1.427.522,1.592c.36,1.069.741,2.145,1.137,3.217.793,2.144,1.647,4.275,2.556,6.373a111.183,111.183,0,0,0,6.1,12.1c4.475,7.642,9.978,14.44,16.027,18.553a25.082,25.082,0,0,0,9.155,4,22.942,22.942,0,0,0,9.554-.184c6.673-1.433,13.877-5.629,20.572-11.056a141.9,141.9,0,0,0,19.061-19.169,274.621,274.621,0,0,0,16.939-22.648,535.059,535.059,0,0,0,29.435-49.837l18.066-34.183,12.634,37.945.41,1.232.523,1.5c.361,1.013.747,2.039,1.145,3.063.8,2.049,1.661,4.091,2.572,6.1a108.718,108.718,0,0,0,6.04,11.508c4.36,7.214,9.622,13.448,14.815,16.945a20.609,20.609,0,0,0,7.382,3.3,17.671,17.671,0,0,0,7.351-.1,32.512,32.512,0,0,0,8.773-3.41,64.355,64.355,0,0,0,9.489-6.509,133.681,133.681,0,0,0,18.266-18.723,266.118,266.118,0,0,0,16.47-22.619,525,525,0,0,0,28.669-50.254l23.21-45.653,16.353,50.352.665,2.048c.277.821.574,1.664.884,2.508.621,1.691,1.293,3.392,2.006,5.07a106.112,106.112,0,0,0,4.712,9.741,68.5,68.5,0,0,0,11.52,15.835A34.312,34.312,0,0,0,521.73,633a21.929,21.929,0,0,0,5.945,2.542,20.084,20.084,0,0,0,6.081.55,24.01,24.01,0,0,0,3.41-.43,29.418,29.418,0,0,0,3.712-.94,63.734,63.734,0,0,0,16.662-8.64,136.737,136.737,0,0,0,17-14.228c11.107-10.745,21.414-23.4,31.257-36.576,9.825-13.229,19.075-27.195,27.934-41.509,8.9-14.294,17.4-28.978,25.626-43.864,16.5-29.762,31.844-60.41,46.878-91.285l43.573,20.58c-14.686,31.926-30.457,63.451-47.661,94.455-8.67,15.468-17.635,30.834-27.217,45.96-9.619,15.1-19.75,30.008-30.827,44.534-5.544,7.264-11.337,14.416-17.5,21.4s-12.67,13.836-19.739,20.418a182.635,182.635,0,0,1-23.357,18.644,105.417,105.417,0,0,1-29.969,14.142,74.855,74.855,0,0,1-8.984,1.939,69.339,69.339,0,0,1-9.546.832,65.37,65.37,0,0,1-19.678-2.621,67.125,67.125,0,0,1-17.681-8.221,79.1,79.1,0,0,1-13.859-11.6,110.741,110.741,0,0,1-18.418-26.6A149.954,149.954,0,0,1,459.2,618.57c-.9-2.353-1.75-4.721-2.545-7.136-.4-1.209-.782-2.428-1.156-3.679l-.555-1.917-.613-2.285,39.563,4.7a565.241,565.241,0,0,1-33.063,53.082,304.925,304.925,0,0,1-19.965,25.288,170.947,170.947,0,0,1-24.721,23.3,101.444,101.444,0,0,1-15.757,9.818,69.037,69.037,0,0,1-19.564,6.42,54.37,54.37,0,0,1-22.52-1.019,57.045,57.045,0,0,1-19.608-9.619A75.842,75.842,0,0,1,324.768,701.8a107.734,107.734,0,0,1-9.871-14.97,143.032,143.032,0,0,1-7.314-15.456c-1.057-2.611-2.037-5.239-2.952-7.906-.457-1.335-.9-2.677-1.324-4.047l-.629-2.085-.664-2.375,30.7,3.762A566.022,566.022,0,0,1,298.87,709.95a303.641,303.641,0,0,1-20.027,24.131,169.058,169.058,0,0,1-24.125,21.839,97.075,97.075,0,0,1-14.851,8.941,64.331,64.331,0,0,1-17.8,5.7,48.347,48.347,0,0,1-20.04-.938,49.932,49.932,0,0,1-17.57-8.795,68.122,68.122,0,0,1-12.595-12.9,98.55,98.55,0,0,1-8.927-14.3,133.615,133.615,0,0,1-6.538-14.893q-1.4-3.779-2.589-7.621c-.4-1.284-.777-2.575-1.14-3.883l-.533-1.984-.535-2.171,19.963,1.483a373.734,373.734,0,0,1-30.682,54.848c-5.84,8.679-12.1,17.056-18.652,25.174q-9.892,12.128-20.806,23.3a340.642,340.642,0,0,1-47.214,40.326,295.53,295.53,0,0,1-26.121,16.546,214.621,214.621,0,0,1-27.8,13.3Z"/><polyline class="cls-3" points="749.804 419.217 938.406 20.61 894.847 0 706.245 398.607"/></g></g></svg>