<svg xmlns="http://www.w3.org/2000/svg" xmlns:xlink="http://www.w3.org/1999/xlink" viewBox="0 0 189.053 140.417"><defs><style>.cls-1{fill:#49afd4;}.cls-2{fill:none;}.cls-3{fill:url(#名称未設定グラデーション_2);}.cls-4{fill:url(#名称未設定グラデーション_2-2);}.cls-5{fill:url(#名称未設定グラデーション_2-3);}.cls-6{fill:url(#名称未設定グラデーション_2-4);}</style><linearGradient id="名称未設定グラデーション_2" x1="-2201.227" y1="-586.214" x2="-2200.227" y2="-586.214" gradientTransform="matrix(0, -161.421, -161.421, 0, -94591.402, -355170.703)" gradientUnits="userSpaceOnUse"><stop offset="0" stop-color="#e9822e"/><stop offset="0.097" stop-color="#e9822e"/><stop offset="0.452" stop-color="#ed9f16"/><stop offset="0.776" stop-color="#f0b206"/><stop offset="1" stop-color="#f1b900"/></linearGradient><linearGradient id="名称未設定グラデーション_2-2" x1="-2201.227" y1="-586.576" x2="-2200.227" y2="-586.576" xlink:href="#名称未設定グラデーション_2"/><linearGradient id="名称未設定グラデーション_2-3" x1="-2201.227" y1="-586.636" x2="-2200.227" y2="-586.636" xlink:href="#名称未設定グラデーション_2"/><linearGradient id="名称未設定グラデーション_2-4" x1="-2201.227" y1="-586.424" x2="-2200.227" y2="-586.424" xlink:href="#名称未設定グラデーション_2"/></defs><g id="レイヤー_2" data-name="レイヤー 2"><g id="レイヤー_1-2" data-name="レイヤー 1"><path class="cls-1" d="M113.1,42.578a9.292,9.292,0,1,0-16.27,0c2.49,6.281,8.135,15.01,8.135,15.01S110.6,48.859,113.1,42.578Z"/><path class="cls-2" d="M188.031,0l-4.046,9.032c-4.342,9.692-8.927,19.268-13.564,28.82l-1.753,3.576-1.817,3.634c-1.22,2.431-2.432,4.85-3.753,7.249-2.57,4.814-5.241,9.6-8.187,14.289l-2.2,3.523-2.335,3.487-1.169,1.74-1.254,1.716c-.849,1.14-1.66,2.286-2.54,3.416A79.336,79.336,0,0,1,133.069,93.51a34.125,34.125,0,0,1-9.256,5.332c-1.015.3-1.993.61-3.054.825-.561.085-1.125.16-1.688.223a10.1,10.1,0,0,1-1.725.1,16.279,16.279,0,0,1-3.591-.366c-.6-.136-1.2-.254-1.772-.445-.565-.208-1.127-.429-1.68-.663a10.231,10.231,0,0,1-1.562-.8c-.49-.294-1-.586-1.453-.908a20.656,20.656,0,0,1-2.432-2.068,18.823,18.823,0,0,1-1.435-1.569c-.2.275-.382.552-.583.826a51.3,51.3,0,0,1-10.37,10.9,19.958,19.958,0,0,1-8.576,3.79,14.6,14.6,0,0,1-2.782.159c-.473-.021-.956-.1-1.431-.165a7.983,7.983,0,0,1-1.4-.3,13.943,13.943,0,0,1-4.842-2.42,19.706,19.706,0,0,1-4.488-5.055c-.758,1.062-1.531,2.117-2.337,3.158a49.638,49.638,0,0,1-10.033,10.1,18,18,0,0,1-7.535,3.258,11.285,11.285,0,0,1-4.679-.255,12.09,12.09,0,0,1-4.08-2.076,18.382,18.382,0,0,1-4.8-6.22c-.085-.17-.156-.342-.237-.513-.04.066-.076.134-.118.2-1.206,1.967-2.309,3.983-3.682,5.834a76.406,76.406,0,0,1-8.716,10.583,72.947,72.947,0,0,1-10.4,8.782A57.9,57.9,0,0,1,.476,140.224l-.147.057-.112-.276.141-.073A56.98,56.98,0,0,0,11.279,132.4a70.936,70.936,0,0,0,9.208-9.428A72.72,72.72,0,0,0,27.8,112.13c1.126-1.858,1.98-3.868,2.932-5.81.5-.959.834-2,1.249-3l1.191-3.014,2.8-7.094,2.48,7.486c1.166,3.522,3.312,7.412,5.792,9.01a4.234,4.234,0,0,0,3.546.584,11.048,11.048,0,0,0,4.083-2.345,42.14,42.14,0,0,0,7.494-9.062C61.6,95.427,63.612,91.738,65.536,88l5.019-9.762,4.18,10.89.2.523.255.624c.178.419.369.837.568,1.247a21.148,21.148,0,0,0,1.308,2.322,10.083,10.083,0,0,0,2.9,3.116,2.656,2.656,0,0,0,1.062.376l.208.005.2,0c.166-.082.278-.005.487-.118a9.365,9.365,0,0,0,3.125-1.912,40.036,40.036,0,0,0,6.992-8.729c2.142-3.426,4.081-7.122,5.934-10.878l6.888-13.961L111,77.249l.475,1.2c.2.462.411.918.636,1.363a18.066,18.066,0,0,0,1.468,2.411,5.488,5.488,0,0,0,2.657,2.252l.182.044.17-.021c.088.051.243-.054.364-.039.051.028.162-.043.252-.07a1.283,1.283,0,0,1,.283-.063c.227-.087.5-.236.759-.307a20.238,20.238,0,0,0,4.209-3.04,64.019,64.019,0,0,0,8.691-10.8c.678-1.019,1.323-2.1,1.986-3.136l.987-1.575.954-1.629,1.907-3.253,1.82-3.353c1.241-2.207,2.361-4.529,3.541-6.8,1.2-2.253,2.283-4.617,3.421-6.925s2.183-4.695,3.3-7.033l1.649-3.535,1.654-3.624c4.446-9.644,8.943-19.265,13.685-28.77L166.321,0H0V140.417H189.053V0Z"/><path class="cls-3" d="M38.325,102.429l-5.282-.393a29.583,29.583,0,0,0,1.019,3.5,28.619,28.619,0,0,0,1.179,2.825c.566-.918,1.005-1.9,1.511-2.848Z"/><path class="cls-4" d="M152.364,29.315l-1.654,3.624-1.649,3.535c-1.116,2.338-2.146,4.733-3.3,7.033s-2.22,4.672-3.421,6.925c-1.18,2.273-2.3,4.595-3.541,6.8l-1.82,3.353-1.907,3.253-.954,1.629-.987,1.575c-.663,1.041-1.308,2.117-1.986,3.136a64.019,64.019,0,0,1-8.691,10.8,20.238,20.238,0,0,1-4.209,3.04c-.257.071-.532.22-.759.307a1.283,1.283,0,0,0-.283.063c-.09.027-.2.1-.252.07-.121-.015-.276.09-.364.039l-.17.021-.182-.044a5.488,5.488,0,0,1-2.657-2.252,18.066,18.066,0,0,1-1.468-2.411c-.225-.445-.436-.9-.636-1.363l-.475-1.2-6.134-15.507L97.978,75.7c-1.853,3.756-3.792,7.452-5.934,10.878a40.036,40.036,0,0,1-6.992,8.729,9.365,9.365,0,0,1-3.125,1.912c-.209.113-.321.036-.487.118l-.2,0-.208-.005a2.656,2.656,0,0,1-1.062-.376,10.083,10.083,0,0,1-2.9-3.116,21.148,21.148,0,0,1-1.308-2.322c-.2-.41-.39-.828-.568-1.247l-.255-.624-.2-.523-4.18-10.89L65.536,88c-1.924,3.742-3.934,7.431-6.167,10.891a42.14,42.14,0,0,1-7.494,9.062,11.048,11.048,0,0,1-4.083,2.345,4.234,4.234,0,0,1-3.546-.584c-2.48-1.6-4.626-5.488-5.792-9.01l-2.48-7.486-2.8,7.094-1.191,3.014c-.415,1-.749,2.039-1.249,3-.952,1.942-1.806,3.952-2.932,5.81a72.72,72.72,0,0,1-7.312,10.84,70.936,70.936,0,0,1-9.208,9.428A56.98,56.98,0,0,1,.358,139.932l-.141.073.112.276.147-.057a57.9,57.9,0,0,0,11.854-6.461,72.947,72.947,0,0,0,10.4-8.782A76.406,76.406,0,0,0,31.441,114.4c1.373-1.851,2.476-3.867,3.682-5.834.042-.065.078-.133.118-.2a28.619,28.619,0,0,1-1.179-2.825,29.583,29.583,0,0,1-1.019-3.5l5.282.393-1.573,3.088c-.506.95-.945,1.93-1.511,2.848.081.171.152.343.237.513a18.382,18.382,0,0,0,4.8,6.22,12.09,12.09,0,0,0,4.08,2.076,11.285,11.285,0,0,0,4.679.255,18,18,0,0,0,7.535-3.258,49.638,49.638,0,0,0,10.033-10.1c.806-1.041,1.579-2.1,2.337-3.158-.379-.6-.724-1.2-1.043-1.8a31.745,31.745,0,0,1-1.615-3.566c-.229-.6-.443-1.2-.64-1.811l-.287-.928-.286-1.048,9.2,1.128c-1.7,2.708-3.45,5.393-5.328,8.025a19.706,19.706,0,0,0,4.488,5.055,13.943,13.943,0,0,0,4.842,2.42,7.983,7.983,0,0,0,1.4.3c.475.065.958.144,1.431.165a14.6,14.6,0,0,0,2.782-.159,19.958,19.958,0,0,0,8.576-3.79A51.3,51.3,0,0,0,102.838,94c.2-.274.386-.551.583-.826a28.774,28.774,0,0,1-2.1-2.918A32.745,32.745,0,0,1,99,85.673q-.472-1.152-.868-2.323l-.376-1.2c-.127-.437-.219-.756-.377-1.389L110.4,82.309c-2.159,3.668-4.424,7.306-6.978,10.865a18.823,18.823,0,0,0,1.435,1.569,20.656,20.656,0,0,0,2.432,2.068c.449.322.963.614,1.453.908a10.231,10.231,0,0,0,1.562.8c.553.234,1.115.455,1.68.663.571.191,1.176.309,1.772.445a16.279,16.279,0,0,0,3.591.366,10.1,10.1,0,0,0,1.725-.1c.563-.063,1.127-.138,1.688-.223,1.061-.215,2.039-.524,3.054-.825a34.125,34.125,0,0,0,9.256-5.332,79.336,79.336,0,0,0,12.345-13.028c.88-1.13,1.691-2.276,2.54-3.416l1.254-1.716,1.169-1.74,2.335-3.487,2.2-3.523c2.946-4.692,5.617-9.475,8.187-14.289,1.321-2.4,2.533-4.818,3.753-7.249l1.817-3.634,1.753-3.576c4.637-9.552,9.222-19.128,13.564-28.82L188.031,0h-21.71l-.272.545C161.307,10.05,156.81,19.671,152.364,29.315Z"/><path class="cls-5" d="M97.377,80.762c.158.633.25.952.377,1.389l.376,1.2q.4,1.172.868,2.323a32.745,32.745,0,0,0,2.322,4.583,28.774,28.774,0,0,0,2.1,2.918c2.554-3.559,4.819-7.2,6.978-10.865Z"/><path class="cls-6" d="M65.074,91.763l.286,1.048.287.928c.2.611.411,1.212.64,1.811A31.745,31.745,0,0,0,67.9,99.116c.319.6.664,1.2,1.043,1.8,1.878-2.632,3.631-5.317,5.328-8.025Z"/></g></g></svg>