<svg xmlns="http://www.w3.org/2000/svg" viewBox="0 0 335.719 259.654"><defs><style>.cls-1{fill:#3f3d56;}.cls-2{fill:#ee9600;}.cls-3,.cls-4{isolation:isolate;}.cls-3{opacity:0.3;}.cls-4{opacity:0.1;}.cls-5{fill:#9a616a;}.cls-6{fill:#2f2e41;}.cls-7{fill:#cac7db;}.cls-8{fill:#fff;}</style></defs><g id="レイヤー_2" data-name="レイヤー 2"><g id="レイヤー_1-2" data-name="レイヤー 1"><path class="cls-1" d="M166.212,209.226A91.941,91.941,0,1,1,231.224,182.3,91.941,91.941,0,0,1,166.212,209.226Zm0-183.283a91.342,91.342,0,1,0,91.342,91.342,91.446,91.446,0,0,0-91.342-91.342Z"/><path class="cls-2" d="M173.957,199.073c-1.7,6.294-7.535,10.192-7.535,10.192s-3.071-6.306-1.368-12.6,7.534-10.192,7.534-10.192S175.659,192.78,173.957,199.073Z"/><path class="cls-2" d="M158.468,199.073c1.7,6.294,7.534,10.192,7.534,10.192s3.072-6.306,1.369-12.6-7.534-10.192-7.534-10.192S156.765,192.78,158.468,199.073Z"/><path class="cls-1" d="M160.97,197.721c4.672,4.548,5.242,11.539,5.242,11.539s-7-.383-11.676-4.93-5.242-11.54-5.242-11.54S156.3,193.173,160.97,197.721Z"/><path class="cls-1" d="M171.455,197.721c-4.672,4.548-5.243,11.539-5.243,11.539s7-.383,11.676-4.93,5.243-11.54,5.243-11.54S176.127,193.173,171.455,197.721Z"/><path class="cls-2" d="M158.468,35.843C160.171,29.55,166,25.652,166,25.652s3.072,6.306,1.369,12.6-7.534,10.191-7.534,10.191S156.765,42.137,158.468,35.843Z"/><path class="cls-2" d="M173.957,35.843c-1.7-6.293-7.535-10.191-7.535-10.191s-3.071,6.306-1.368,12.6,7.534,10.191,7.534,10.191S175.659,42.137,173.957,35.843Z"/><path class="cls-1" d="M171.455,37.2c-4.672-4.548-5.243-11.539-5.243-11.539s7,.382,11.676,4.93,5.243,11.539,5.243,11.539S176.127,41.744,171.455,37.2Z"/><path class="cls-1" d="M160.97,37.2c4.672-4.548,5.242-11.539,5.242-11.539s-7,.382-11.676,4.93-5.242,11.539-5.242,11.539S156.3,41.744,160.97,37.2Z"/><rect class="cls-2" x="4.381" y="3.796" width="119.031" height="121.04"/><polygon class="cls-1" points="118.914 6.869 12.879 6.869 6.869 6.869 6.869 13.308 6.869 120.201 12.879 120.201 12.879 13.308 118.914 13.308 118.914 6.869"/><polygon class="cls-3" points="118.914 6.869 12.879 6.869 6.869 6.869 6.869 13.308 6.869 120.201 12.879 120.201 12.879 13.308 118.914 13.308 118.914 6.869"/><polygon class="cls-4" points="101.742 13.308 97.02 13.308 12.879 13.308 12.879 28.763 97.02 28.763 97.02 120.201 118.914 120.201 118.914 13.308 101.742 13.308"/><path class="cls-1" d="M0,0V127.07H125.782V0ZM118.914,120.2H6.869V6.869H118.914Z"/><path class="cls-5" d="M88.272,131.755s5.688,11.02,8.887,13.508-5.154,5.51-5.154,5.51l-9.776-15.286Z"/><path class="cls-6" d="M53.791,104.916s26.483,6.932,28.793,11.553,9.421,15.819,9.421,15.819l-10.487,8.354L71.209,125.179l-28.438-12.8Z"/><path class="cls-6" d="M91.116,146.33s-2.488-2.133-3.2-.711-2.844,8.709-2.844,8.709,3.021,2.844,9.242,1.066a3.892,3.892,0,0,1,4.088,0c2.489,1.245,11.731-1.244,11.376-5.332S100,146.33,100,146.33s-3.968-4.446-4.472-2.756.206,1.867.206,1.867S92.538,148.818,91.116,146.33Z"/><path class="cls-5" d="M60.722,142.6l-1.777,14.93h8.709s-.711-11.553-.533-12.975S60.722,142.6,60.722,142.6Z"/><path class="cls-5" d="M65.7,109.715s4.8,7.11,1.955,7.643-5.154-7.643-5.154-7.643Z"/><path class="cls-6" d="M29.44,109s-3.555,10.487,10.487,13.331,18.307,5.154,18.307,5.154l1.777,18.13,12.265.711s5.865-27.55-1.778-31.105-23.817-7.643-23.817-7.643Z"/><path class="cls-6" d="M60.011,155.217a22.455,22.455,0,0,1,2.844-1.245s1.563-3.6,4.425-3.223l6.24,9.089s9.42,6.754,2.844,8.531a24.3,24.3,0,0,1-11.731.356l-2.666-1.955s.355-1.955-1.956-1.6c0,0-4.8-1.955-4.621-3.377s3.953-7.611,3.953-7.611Z"/><circle class="cls-5" cx="61.522" cy="67.324" r="7.11"/><path class="cls-5" d="M55.746,65.1s-6.4,4.622-7.643,4.8,5.865,8.887,5.865,8.887,3.377-5.51,5.51-6.221S55.746,65.1,55.746,65.1Z"/><path class="cls-7" d="M50.947,70.968s-2.666-3.555-4.266-3.555-16,1.6-17.241,13.508-.533,32.7-.533,32.7-1.067-5.154,10.842-3.021c0,0,14.219-3.022,16.708-3.022s3.554-25.417,3.554-25.417l-4.046-6.274S54.146,79.322,50.947,70.968Z"/><path class="cls-7" d="M57.345,80.743l2.666,1.422,3.2,19.552,4.443,10.131s-4.8-1.652-5.154.329L55.39,101.9Z"/><path class="cls-6" d="M59.924,61.493l3.868.484c-.074.787-.054,1.762.644,2.134.328.175.744.166,1.034.4.7.557.015,1.755.41,2.557l1.131.3a2.186,2.186,0,0,0,2.959.9l.012-.006a4.241,4.241,0,0,0,1.49-2.147,5.426,5.426,0,0,0,.621-3.066c-.22-1.117-1.132-2.045-1.173-3.182-.019-.509.089-1.144-.34-1.418a1.8,1.8,0,0,0-.628-.166c-.988-.207-1.538-1.229-2.275-1.919-1.544-1.446-3.916-1.408-6.027-1.282a5.361,5.361,0,0,0-1.774.309,5.164,5.164,0,0,0-1.671,1.333,17.455,17.455,0,0,0-2.982,3.95,7.014,7.014,0,0,0-.709,4.81c-.04-.155,1.3-1.166,1.471-1.328a3.478,3.478,0,0,0,.857-1.336C57.505,61.45,58.426,61.306,59.924,61.493Z"/><polygon class="cls-4" points="48.547 84.387 49.081 96.829 56.987 106.101 49.792 95.763 48.547 84.387"/><polygon class="cls-4" points="34.328 87.764 40.549 102.161 48.547 108.738 40.016 102.872 34.328 87.764"/><path class="cls-1" d="M68.119,99.433l3.759,2.586a1.037,1.037,0,0,1,.287,1.277l-.5,1.038.116.08-.571,1.178-.117-.08-4.14,8.545a.8.8,0,0,1-1.035.462.841.841,0,0,1-.158-.081l-3.532-2.43a1.193,1.193,0,0,1-.33-1.469l5.227-10.788a.669.669,0,0,1,.865-.385A.648.648,0,0,1,68.119,99.433Z"/><polygon class="cls-8" points="62.285 110.445 66.331 113.228 71.608 102.337 67.562 99.554 62.285 110.445"/><path class="cls-5" d="M60.528,108.048s7.051,4.885,4.594,6.413-7.575-5.253-7.575-5.253Z"/><path class="cls-7" d="M39.571,71.856S30.329,74.523,32.995,82.7c.643,1.972,1.421,4.089,2.23,6.166,2.547,6.534,5.413,12.674,5.413,12.674l8.033,7.264,10.807,3.045,1.244-1.066s.356-3.378-1.244-3.733a19.75,19.75,0,0,1-4.088-1.777l-6.4-9.421S48.814,72.39,39.571,71.856Z"/><rect class="cls-2" x="215.246" y="93.698" width="116.197" height="118.159"/><polygon class="cls-1" points="219.637 96.697 323.147 96.697 329.014 96.697 329.014 102.983 329.014 207.331 323.147 207.331 323.147 102.983 219.637 102.983 219.637 96.697"/><polygon class="cls-3" points="219.637 96.697 323.147 96.697 329.014 96.697 329.014 102.983 329.014 207.331 323.147 207.331 323.147 102.983 219.637 102.983 219.637 96.697"/><polygon class="cls-4" points="236.399 102.983 241.009 102.983 323.147 102.983 323.147 118.069 241.009 118.069 241.009 207.331 219.637 207.331 219.637 102.983 236.399 102.983"/><path class="cls-1" d="M212.931,89.992V214.036H335.719V89.992Zm6.706,6.7H329.014V207.331H219.637Z"/><path class="cls-6" d="M284.68,148.474c-2.644-4.468-7.875-4.676-7.875-4.676s-5.1-.652-8.368,6.152c-3.048,6.342-7.254,12.466-.677,13.951l1.188-3.7.736,3.973a25.9,25.9,0,0,0,2.814.048c7.043-.227,13.751.067,13.535-2.461C285.746,158.4,287.224,152.773,284.68,148.474Z"/><polygon class="cls-5" points="265.622 184.532 265.065 194.544 281.382 196.213 281.939 185.83 276.376 182.307 265.622 184.532"/><path class="cls-6" d="M309.474,206.5c-.49-4.73-19.916-6.877-24.584-7.326l-1.746-1.018-.556-5.933s-17.244-1.484-18.542-1.669-2.411,2.225-2.411,2.781a13.177,13.177,0,0,1-1.217,4.975c-2.1,1.69-8.517,7.009-8.517,9.024,0,2.411,5.1,32.727,5.1,32.727l.556,6.3,5.192.927-.371-19.654s1.854-11.311-.742-14.463v-1.3s7.614-1.983,10.3-4.143a10.676,10.676,0,0,1,4.17-.221c.165.1.356.2.568.3a.957.957,0,0,1,.077.079l.021-.032c3.471,1.624,12.376,3.674,16.018,3.091a12.742,12.742,0,0,1,8.158,1.483c-2.039,2.6-.556,10.013-.556,10.013l.185,15.946,2.6,3.152h3.523v-8.714S310.03,211.881,309.474,206.5Z"/><circle class="cls-5" cx="275.171" cy="154.586" r="6.119"/><path class="cls-5" d="M271.463,158.48s.927,4.079-.371,4.45a17.622,17.622,0,0,0-2.967,1.3l-1.483,4.821v4.821l17.985,2.04.557-1.669V171.83l-2.04-3.708-.927-.927s-4.079-4.45-3.152-8.715Z"/><path class="cls-5" d="M287.5,173.221s.557,6.49,0,9.456a41.089,41.089,0,0,0-.37,7.417l-4.08-.741V179.34l.927-5.377Z"/><circle class="cls-6" cx="277.445" cy="143.821" r="3.782"/><path class="cls-6" d="M273.264,142.825a3.783,3.783,0,0,1,3.384-3.761,3.782,3.782,0,1,0-.4,7.544c.133,0,.266-.008.4-.022A3.782,3.782,0,0,1,273.264,142.825Z"/><polygon class="cls-6" points="283.511 148.043 278.343 145.336 271.206 146.444 269.729 152.965 273.405 152.824 274.432 150.428 274.432 152.784 276.128 152.719 277.112 148.904 277.727 152.965 283.757 152.842 283.511 148.043"/><path class="cls-7" d="M262.459,240.143s2.631,1.238,3.4,1.7,3.87-.464,3.251,2.322a13.433,13.433,0,0,1-3.251,5.417s-1.238,1.393-1.238,2.321-3.095,8.048-6.81,7.739-3.095-4.024-3.095-4.024l.774-4.024s1.547-6.81,1.857-6.655a6.755,6.755,0,0,1,1.083,1.238A6.864,6.864,0,0,0,262.459,240.143Z"/><path class="cls-7" d="M301.047,235.507s-2.631,1.238-3.405,1.7-3.869-.465-3.25,2.321a13.424,13.424,0,0,0,3.25,5.417s1.239,1.393,1.239,2.322,3.1,8.048,6.81,7.738,3.1-4.024,3.1-4.024l-.774-4.024s-1.548-6.81-1.857-6.655a6.762,6.762,0,0,0-1.084,1.238A6.864,6.864,0,0,1,301.047,235.507Z"/><path class="cls-7" d="M280.647,191.391V189.92h-.327v-.654a1.145,1.145,0,0,0-1.144-1.145h-3.924a1.145,1.145,0,0,0-1.145,1.145h0V200.22a1.145,1.145,0,0,0,1.145,1.145h3.924a1.144,1.144,0,0,0,1.144-1.145v-6.867h.327v-1.471h-.327v-.491Z"/><circle class="cls-1" cx="277.377" cy="191.391" r="0.654"/><path class="cls-5" d="M260.986,170.069l-3.337,13.721a3.866,3.866,0,0,0,1.668,4.821,70.373,70.373,0,0,0,9.642,4.265s5.934,8.158,6.675,4.821-4.45-7.6-4.45-7.6l-9.085-5.748,3.523-9.642Z"/><path class="cls-5" d="M285.091,187.313s2.781-.371,2.6,2.781-3.894,3.523-3.894,3.523-1.669,7.046-4.079,5.748,1.3-8.344,1.3-8.344l3.152-2.41Z"/><path class="cls-6" d="M267.2,168.864l2.967-6.119-5.934,2.039a6.865,6.865,0,0,0-3.523,5.563c-.185,3.894,4.265,5.933,4.265,5.933s.742,5.563.371,6.305,0,3.708,0,3.708,7.138-1.947,10.661.464,6.4,1.02,6.4,1.02-.185-4.636,1.3-5.378,2.782-4.264,1.484-6.489c0,0,2.966.37,2.781-2.411a7.291,7.291,0,0,0-4.079-6.3c-2.411-1.113-2.677-1.29-2.677-1.29l3.418,6.3v1.669s-6.052-3.863-12.039-4.185a7.978,7.978,0,0,0-5.39,1.774h0Z"/></g></g></svg>